<mxfile host="app.diagrams.net" modified="2020-08-18T15:17:53.072Z" agent="5.0 (Windows NT 10.0; Win64; x64) AppleWebKit/537.36 (KHTML, like Gecko) Chrome/84.0.4147.125 Safari/537.36" etag="N-d1DST3tB0cHvoxUsbW" version="13.6.3" type="github">
  <diagram id="6a731a19-8d31-9384-78a2-239565b7b9f0" name="Page-1">
    <mxGraphModel dx="1422" dy="794" grid="1" gridSize="10" guides="1" tooltips="1" connect="1" arrows="1" fold="1" page="1" pageScale="1" pageWidth="1169" pageHeight="827" background="#ffffff" math="0" shadow="0">
      <root>
        <mxCell id="0" />
        <mxCell id="1" parent="0" />
        <mxCell id="2" value="start" style="shape=mxgraph.flowchart.terminator;strokeWidth=2;gradientColor=none;gradientDirection=north;fontStyle=0;html=1;" parent="1" vertex="1">
          <mxGeometry x="260" y="60" width="120" height="30" as="geometry" />
        </mxCell>
        <mxCell id="3" value="Form - startup.vb" style="shape=mxgraph.flowchart.data;strokeWidth=2;gradientColor=none;gradientDirection=north;fontStyle=0;html=1;" parent="1" vertex="1">
          <mxGeometry x="240.5" y="130" width="159" height="80" as="geometry" />
        </mxCell>
        <mxCell id="7" style="fontStyle=1;strokeColor=#003366;strokeWidth=1;html=1;" parent="1" source="2" target="3" edge="1">
          <mxGeometry relative="1" as="geometry" />
        </mxCell>
        <mxCell id="8" style="fontStyle=1;strokeColor=#003366;strokeWidth=1;html=1;" parent="1" source="3" edge="1">
          <mxGeometry relative="1" as="geometry">
            <mxPoint x="320" y="250" as="targetPoint" />
          </mxGeometry>
        </mxCell>
        <mxCell id="32" value="terminate&#xa;contract&#xa;" style="shape=mxgraph.flowchart.merge_or_storage;strokeWidth=2;gradientColor=none;gradientDirection=north;fontStyle=0;html=1;" parent="1" vertex="1">
          <mxGeometry x="760" y="1300" width="130" height="80.5" as="geometry" />
        </mxCell>
        <mxCell id="33" value="" style="edgeStyle=elbowEdgeStyle;elbow=vertical;exitX=1;exitY=0.5;exitPerimeter=0;entryX=0.5;entryY=0;entryPerimeter=0;fontStyle=1;strokeColor=#003366;strokeWidth=1;html=1;" parent="1" target="32" edge="1">
          <mxGeometry width="100" height="100" as="geometry">
            <mxPoint x="640" y="1260" as="sourcePoint" />
            <mxPoint x="100" as="targetPoint" />
            <Array as="points">
              <mxPoint x="740" y="1260" />
            </Array>
          </mxGeometry>
        </mxCell>
        <mxCell id="39" value="issue&#xa;bill of works" style="shape=mxgraph.flowchart.predefined_process;strokeWidth=2;gradientColor=none;gradientDirection=north;fontStyle=0;html=1;" parent="1" vertex="1">
          <mxGeometry x="560" y="1725" width="190" height="90" as="geometry" />
        </mxCell>
        <mxCell id="45" value="" style="edgeStyle=elbowEdgeStyle;elbow=horizontal;exitX=1;exitY=0.5;exitPerimeter=0;entryX=0.905;entryY=0.5;entryPerimeter=0;fontStyle=1;strokeColor=#003366;strokeWidth=1;html=1;" parent="1" target="34" edge="1">
          <mxGeometry width="100" height="100" as="geometry">
            <mxPoint x="380.5" y="1119.25" as="sourcePoint" />
            <mxPoint x="100" as="targetPoint" />
            <Array as="points">
              <mxPoint x="950" y="1320" />
            </Array>
          </mxGeometry>
        </mxCell>
        <mxCell id="5CW9GBjwH4_lCEYlVOhL-55" value="1. home screen defined&lt;br&gt;2. Listbox for file&amp;nbsp; and directory navigation&lt;br&gt;3. About MI - give company info&lt;br&gt;4. Continue&amp;nbsp;&amp;nbsp;" style="rounded=1;whiteSpace=wrap;html=1;" vertex="1" parent="1">
          <mxGeometry x="160" y="250" width="320" height="60" as="geometry" />
        </mxCell>
        <mxCell id="5CW9GBjwH4_lCEYlVOhL-56" value="" style="endArrow=classic;html=1;exitX=0.5;exitY=1;exitDx=0;exitDy=0;" edge="1" parent="1" source="5CW9GBjwH4_lCEYlVOhL-55">
          <mxGeometry width="50" height="50" relative="1" as="geometry">
            <mxPoint x="560" y="390" as="sourcePoint" />
            <mxPoint x="320" y="370" as="targetPoint" />
          </mxGeometry>
        </mxCell>
        <mxCell id="5CW9GBjwH4_lCEYlVOhL-57" value="Continue button -&amp;nbsp; load frmMain" style="shape=parallelogram;perimeter=parallelogramPerimeter;whiteSpace=wrap;html=1;fixedSize=1;" vertex="1" parent="1">
          <mxGeometry x="210" y="370" width="200" height="60" as="geometry" />
        </mxCell>
      </root>
    </mxGraphModel>
  </diagram>
</mxfile>
